<?xml version="1.0" standalone="no"?>
<!DOCTYPE svg PUBLIC "-//W3C//DTD SVG 20010904//EN"
 "http://www.w3.org/TR/2001/REC-SVG-20010904/DTD/svg10.dtd">
<svg version="1.0" xmlns="http://www.w3.org/2000/svg"
 width="606.000000pt" height="606.000000pt" viewBox="0 0 606.000000 606.000000"
 preserveAspectRatio="xMidYMid meet">

<g transform="translate(0.000000,606.000000) scale(0.100000,-0.100000)"
fill="#000000" stroke="none">
<path d="M2780 6004 c-14 -2 -65 -9 -115 -15 -405 -47 -840 -200 -1189 -418
-99 -62 -307 -213 -355 -257 -13 -12 -54 -49 -90 -81 -231 -203 -488 -539
-643 -838 -148 -287 -261 -657 -304 -995 -23 -182 -23 -535 0 -720 114 -908
625 -1698 1411 -2180 668 -410 1506 -534 2280 -339 713 180 1347 636 1760
1265 157 239 309 580 380 854 28 110 74 365 84 474 37 383 -8 811 -125 1181
-241 760 -779 1393 -1497 1759 -280 143 -565 233 -922 292 -95 15 -608 29
-675 18z m503 -1000 c294 -38 566 -138 817 -302 252 -163 494 -427 644 -702
36 -66 126 -274 126 -291 0 -5 -9 -9 -19 -9 -15 0 -26 17 -47 73 -153 404
-486 778 -878 986 -677 361 -1512 274 -2101 -219 -107 -90 -231 -220 -305
-322 -33 -45 -64 -88 -69 -94 -42 -52 -201 -376 -201 -410 0 -8 -10 -14 -21
-14 -18 0 -21 4 -16 30 10 49 102 245 162 346 393 658 1150 1027 1908 928z
m-623 -495 c0 -60 3 -80 13 -77 8 3 13 31 15 81 2 58 6 77 17 77 11 0 15 -19
17 -77 2 -50 7 -78 16 -81 9 -3 12 17 12 77 0 64 3 81 14 81 11 0 15 -20 18
-87 5 -130 2 -143 -33 -143 l-29 0 0 -170 c0 -144 -2 -170 -15 -170 -8 0 -15
8 -15 18 -1 9 -1 86 0 170 l1 152 -31 0 -30 0 0 115 c0 96 3 115 15 115 12 0
15 -16 15 -81z m553 53 c64 -28 121 -89 146 -156 53 -143 -6 -293 -143 -361
-103 -52 -250 -25 -324 59 -68 78 -92 163 -72 259 36 177 226 273 393 199z
m315 6 c26 -28 42 -70 42 -109 0 -36 -25 -100 -46 -115 -12 -10 -15 -42 -17
-165 -2 -138 -4 -154 -19 -157 -17 -3 -18 10 -18 157 0 102 -4 161 -10 161
-22 0 -50 65 -50 118 0 105 65 166 118 110z m-927 -967 c22 -18 24 -26 23
-103 -1 -81 -14 -141 -49 -222 -13 -30 -14 -45 -6 -63 15 -32 34 -29 65 12 30
40 46 38 46 -5 0 -32 -48 -89 -77 -91 -30 -2 -47 2 -63 16 -13 12 -19 10 -40
-12 -21 -22 -30 -25 -70 -20 -30 4 -51 1 -64 -9 -23 -16 -69 -18 -95 -4 -10 5
-24 23 -31 40 -16 39 -42 36 -50 -5 -15 -70 -65 -106 -124 -88 -27 8 -37 7
-57 -8 -38 -29 -126 -59 -174 -59 -60 0 -121 26 -146 62 -25 34 -49 118 -49
169 0 77 50 163 114 196 43 22 120 21 146 -2 28 -25 44 -89 30 -116 -17 -30
-51 -21 -64 18 -15 44 -30 57 -60 49 -81 -20 -111 -144 -61 -250 28 -59 109
-72 193 -30 l52 26 0 60 c0 55 3 63 34 94 28 28 42 34 75 34 33 0 44 -5 63
-30 37 -51 45 -39 44 68 -1 159 34 252 94 252 35 0 45 -13 61 -74 15 -59 0
-158 -38 -253 -27 -68 -27 -96 0 -101 30 -6 47 17 47 63 0 49 30 100 76 130
29 19 32 26 42 111 14 120 31 153 83 163 4 0 17 -8 30 -18z m534 -13 c16 -7
29 -25 36 -48 16 -52 -2 -99 -52 -145 l-40 -36 27 -37 c53 -70 51 -69 91 -23
27 30 44 41 65 41 15 0 28 -5 28 -11 0 -20 -40 -77 -67 -97 l-27 -20 27 -32
c32 -37 35 -66 7 -75 -30 -9 -53 1 -75 35 -13 20 -25 28 -35 24 -80 -35 -172
-25 -217 24 -21 23 -24 34 -20 72 4 38 12 52 50 86 l46 41 -14 40 c-13 38 -9
92 10 123 26 42 109 62 160 38z m675 -83 c123 -22 145 -36 121 -74 -8 -12 -21
-12 -93 2 -45 10 -88 17 -94 17 -10 0 -47 -120 -40 -128 2 -1 26 -5 55 -9 44
-5 51 -9 51 -28 0 -43 -31 -51 -111 -29 -12 3 -21 -8 -34 -41 -36 -95 -94
-131 -173 -106 -54 16 -84 44 -84 75 0 49 18 53 53 13 46 -52 93 -47 124 13
20 39 19 57 -5 63 -39 10 -18 67 25 67 16 0 23 10 33 45 18 68 16 75 -20 75
-48 0 -63 -14 -63 -57 0 -36 -2 -38 -30 -38 -27 0 -30 4 -33 34 -5 50 5 79 34
98 52 34 129 36 284 8z m778 -187 c38 -38 -6 -133 -115 -248 -78 -83 -98 -119
-73 -135 6 -4 24 1 42 9 41 21 58 20 58 -3 0 -23 -19 -40 -67 -56 -47 -16 -91
-3 -99 32 -5 18 -11 22 -23 17 -38 -16 -68 -15 -91 4 -20 17 -25 29 -24 66 l1
46 -40 -36 c-35 -32 -44 -36 -80 -31 -51 7 -77 33 -84 86 -3 22 -8 41 -10 41
-2 0 -19 -16 -37 -35 -25 -26 -42 -35 -65 -35 -108 0 -143 115 -61 201 31 33
43 39 78 39 33 0 45 -6 66 -31 14 -17 26 -41 26 -54 0 -37 15 -38 48 -5 59 59
155 30 168 -51 7 -44 18 -48 66 -19 18 10 51 21 73 22 33 3 43 9 55 34 24 48
78 122 102 139 27 18 69 20 86 3z m247 -163 c33 -32 32 -51 -10 -131 -19 -37
-35 -70 -35 -73 0 -4 18 -13 40 -22 l41 -14 63 62 c68 66 116 85 161 65 35
-16 40 -46 15 -97 -26 -55 -78 -88 -145 -95 -45 -5 -52 -8 -67 -40 -9 -19 -17
-50 -18 -67 0 -27 5 -34 25 -39 21 -5 32 1 63 34 41 45 75 57 126 48 50 -10
71 -39 69 -97 -1 -55 10 -61 47 -29 28 24 68 26 77 4 4 -10 -12 -34 -48 -70
-29 -29 -50 -57 -46 -61 9 -9 64 18 118 56 33 24 45 28 60 20 11 -5 19 -13 19
-17 0 -4 -25 -32 -55 -62 -30 -30 -55 -61 -55 -68 0 -20 47 -9 132 30 58 26
72 29 93 20 16 -7 23 -17 19 -27 -3 -8 -10 -15 -14 -15 -23 0 -40 -35 -40 -79
0 -26 -5 -52 -12 -59 -9 -9 -9 -12 2 -12 8 0 28 14 46 31 78 76 221 29 185
-60 -18 -41 -61 -58 -115 -43 -49 13 -55 9 -31 -18 20 -22 89 -45 105 -35 5 3
17 2 25 -2 13 -7 13 -12 3 -26 -21 -28 -78 -32 -130 -9 -51 24 -66 39 -77 77
-6 26 -32 41 -106 62 -49 14 -70 58 -40 83 12 10 21 10 41 1 34 -15 34 -15 34
18 l0 29 -49 -20 c-76 -32 -142 -14 -143 39 -1 30 -2 31 -39 26 -34 -5 -40 -3
-50 21 -10 22 -10 33 4 60 8 19 14 36 11 39 -3 2 -21 -4 -42 -14 -62 -32 -122
-19 -144 33 -10 22 -20 28 -43 28 -45 0 -92 33 -100 70 -8 39 1 97 22 128 17
28 20 25 -41 47 l-49 19 -21 -30 c-47 -65 -79 -94 -102 -94 -50 0 -43 35 20
114 27 34 28 38 11 50 -9 7 -15 21 -13 32 3 15 11 19 43 17 38 -2 42 0 73 47
38 59 39 67 9 81 -18 8 -33 7 -61 -5 -62 -26 -81 9 -23 44 48 30 130 28 162
-5z m-3629 -154 c42 -26 74 -97 74 -166 0 -46 -4 -59 -31 -89 -47 -54 -129
-62 -157 -15 -12 18 -11 24 1 36 13 13 20 13 51 2 31 -11 38 -11 56 6 18 17
27 64 14 77 -3 3 -16 -5 -29 -18 -18 -17 -35 -24 -65 -24 -105 0 -120 138 -20
191 44 24 67 24 106 0z m-186 -200 c8 -17 3 -25 -35 -56 -40 -34 -43 -38 -29
-53 20 -19 12 -86 -15 -122 -14 -19 -27 -25 -57 -25 -36 0 -39 3 -63 53 -42
86 -53 65 -25 -45 17 -70 14 -93 -13 -93 -27 1 -48 20 -72 68 -12 23 -26 42
-32 42 -11 0 -3 -54 17 -113 12 -35 10 -66 -5 -68 -29 -3 -45 -14 -97 -69
-101 -107 -206 -139 -265 -81 -23 24 -29 38 -29 75 0 24 5 48 10 51 22 14 10
35 -20 35 -21 0 -39 9 -56 28 -71 75 31 245 146 245 46 0 85 -29 92 -68 10
-52 -38 -76 -62 -31 -7 14 -19 27 -27 31 -25 9 -67 -18 -87 -56 -19 -35 -19
-38 -3 -63 20 -30 44 -33 85 -9 31 18 62 12 62 -12 0 -8 -16 -32 -35 -52 -64
-68 -40 -151 36 -124 41 14 114 76 140 118 l21 34 -26 58 c-32 71 -32 85 -3
106 21 15 23 14 39 -22 l17 -38 0 32 c1 38 18 85 34 95 22 14 37 8 56 -22 l18
-31 5 52 c4 38 11 58 28 71 32 26 52 10 84 -66 29 -68 49 -83 60 -43 11 42 7
65 -14 70 -36 9 -23 41 33 80 60 42 72 45 87 18z m3265 -362 c49 -12 101 -58
121 -106 10 -24 14 -87 14 -235 0 -176 -3 -208 -19 -243 -21 -46 -54 -79 -94
-94 -20 -8 -419 -11 -1285 -11 -1409 0 -1293 -6 -1356 73 l-31 39 0 231 c0
231 0 232 25 269 27 40 67 67 114 79 52 12 2461 11 2511 -2z m-2948 -277 c67
-137 122 -225 220 -349 63 -80 228 -249 273 -280 14 -9 27 -20 30 -23 13 -16
204 -142 270 -178 173 -94 319 -146 565 -202 159 -36 472 -36 665 -1 522 97
957 384 1258 831 47 71 139 242 161 303 7 17 18 27 31 27 27 0 23 -13 -45
-152 -160 -323 -413 -601 -726 -797 -224 -140 -539 -244 -819 -272 -795 -77
-1549 341 -1912 1059 -37 75 -68 142 -68 149 0 7 8 13 18 13 12 -1 35 -38 79
-128z"/>
<path d="M3000 4493 c-72 -37 -109 -90 -117 -166 -14 -133 81 -240 213 -239
63 0 110 20 151 62 74 76 83 191 21 277 -64 90 -171 116 -268 66z m167 -14
c48 -18 93 -70 109 -126 14 -48 14 -58 0 -106 -32 -109 -149 -165 -253 -122
-48 20 -71 41 -95 88 -64 126 25 277 164 277 26 0 59 -5 75 -11z"/>
<path d="M2556 3544 c-3 -9 -6 -57 -5 -107 1 -90 1 -91 14 -52 23 70 15 221
-9 159z"/>
<path d="M2275 3478 c-3 -24 -5 -83 -3 -133 l3 -90 14 40 c7 22 15 82 18 133
5 79 3 92 -10 92 -11 0 -18 -13 -22 -42z"/>
<path d="M2462 3280 c-15 -17 -22 -36 -22 -66 0 -48 19 -63 45 -34 14 15 15
28 8 71 l-8 53 -23 -24z"/>
<path d="M2073 3223 c-18 -6 -16 -83 2 -107 26 -34 72 8 46 43 -6 9 -17 28
-24 42 -6 14 -18 24 -24 22z"/>
<path d="M3041 3521 c-13 -24 -14 -71 -1 -91 8 -12 14 -10 40 15 24 23 30 37
28 60 -2 24 -8 31 -30 33 -18 2 -30 -3 -37 -17z"/>
<path d="M2980 3300 c-24 -24 -26 -63 -4 -81 15 -13 99 -18 110 -6 7 7 -65
107 -77 107 -5 0 -18 -9 -29 -20z"/>
<path d="M4513 3247 c-30 -45 -75 -138 -70 -143 6 -7 60 63 86 111 35 66 23
91 -16 32z"/>
<path d="M3872 3207 c-19 -22 -33 -69 -27 -88 8 -23 47 -25 64 -5 9 11 9 20 2
35 -6 11 -11 31 -11 45 0 28 -11 33 -28 13z"/>
<path d="M4080 3144 c-8 -8 -14 -34 -14 -57 -1 -36 2 -42 21 -45 29 -4 41 22
35 76 -4 44 -20 54 -42 26z"/>
<path d="M4304 3065 c-26 -18 -50 -73 -38 -85 19 -19 53 2 68 41 9 22 16 44
16 49 0 15 -22 12 -46 -5z"/>
<path d="M5003 2956 c-26 -24 -45 -47 -41 -52 15 -15 73 12 95 45 45 67 16 70
-54 7z"/>
<path d="M5031 2706 c-12 -13 -23 -36 -24 -52 -2 -26 1 -29 28 -29 27 0 30 3
35 40 3 22 9 46 13 53 15 22 -28 13 -52 -12z"/>
<path d="M5581 2329 c-27 -11 -23 -33 8 -37 22 -3 51 13 51 28 0 13 -34 18
-59 9z"/>
<path d="M1104 2924 c-8 -32 13 -56 43 -48 47 13 36 74 -13 74 -17 0 -25 -7
-30 -26z"/>
<path d="M1844 2140 c-13 -5 -29 -27 -39 -53 -15 -40 -15 -47 -1 -80 14 -34
18 -37 54 -37 49 0 73 30 75 96 3 61 -38 94 -89 74z m52 -56 c9 -35 -7 -78
-30 -82 -22 -5 -36 13 -36 46 0 59 53 87 66 36z"/>
<path d="M2037 2130 c-29 -23 -36 -60 -14 -78 7 -6 30 -12 51 -14 l38 -3 -20
-25 c-18 -21 -23 -23 -39 -12 -43 29 -67 27 -47 -6 8 -12 25 -17 54 -17 35 0
47 5 64 28 23 31 26 102 4 123 -25 25 -62 26 -91 4z m61 -34 c4 -21 -14 -37
-35 -29 -14 5 -18 35 -6 47 12 12 38 1 41 -18z"/>
<path d="M2434 2142 c-18 -11 -54 -89 -54 -117 0 -22 4 -25 39 -25 30 0 40 -4
44 -20 3 -11 10 -20 17 -20 7 0 14 9 17 20 3 11 12 20 19 20 8 0 14 7 14 15 0
8 -4 15 -10 15 -5 0 -10 18 -10 41 0 49 -20 49 -34 1 -7 -24 -15 -32 -32 -32
-29 0 -29 1 -3 52 20 39 16 65 -7 50z"/>
<path d="M2648 2133 c-20 -22 -48 -89 -48 -114 0 -15 8 -19 39 -19 30 0 40 -4
44 -20 3 -11 10 -20 17 -20 7 0 14 9 17 20 3 11 12 20 19 20 8 0 14 7 14 15 0
8 -5 15 -11 15 -6 0 -9 15 -7 38 4 47 -22 52 -35 5 -10 -34 -26 -46 -46 -33
-10 5 -8 17 9 50 23 46 15 74 -12 43z"/>
<path d="M2850 2133 c-19 -13 -21 -22 -16 -54 3 -22 2 -39 -3 -39 -15 0 -22
-30 -11 -50 20 -37 105 -33 122 6 9 19 8 28 -6 43 -15 16 -15 19 -1 31 17 14
20 56 5 65 -22 13 -69 12 -90 -2z m66 -24 c3 -6 -1 -18 -10 -27 -15 -15 -17
-15 -32 0 -19 19 -11 38 16 38 10 0 22 -5 26 -11z m-16 -84 c15 -18 5 -35 -20
-35 -22 0 -34 15 -26 35 7 19 30 19 46 0z"/>
<path d="M3037 2143 c-2 -4 -5 -26 -5 -49 -2 -39 0 -41 36 -50 27 -7 37 -14
37 -29 0 -25 -37 -32 -55 -10 -18 22 -32 19 -28 -7 6 -44 94 -43 118 2 15 28
-4 59 -41 67 -23 4 -29 10 -27 27 2 16 11 22 41 24 56 5 41 26 -20 30 -28 2
-53 -1 -56 -5z"/>
<path d="M3252 2140 c-27 -11 -39 -37 -24 -52 8 -8 16 -5 30 12 12 15 25 21
35 17 25 -9 20 -35 -9 -50 l-26 -14 26 -16 c31 -21 33 -33 5 -42 -13 -4 -27
-1 -38 9 -22 20 -41 21 -41 2 0 -27 30 -40 93 -37 38 1 58 43 33 70 -15 16
-15 19 -1 31 25 20 19 59 -11 70 -30 12 -42 12 -72 0z"/>
<path d="M3460 2137 c-27 -14 -38 -50 -21 -71 8 -10 7 -17 -4 -26 -18 -15 -20
-56 -4 -66 6 -4 30 -7 52 -7 57 0 86 42 52 76 -13 13 -13 16 0 27 21 18 19 57
-4 70 -25 13 -40 13 -71 -3z m56 -28 c3 -6 -1 -18 -9 -27 -13 -13 -19 -13 -32
-2 -12 10 -13 16 -4 26 14 17 35 18 45 3z m-17 -78 c19 -12 6 -41 -18 -41 -24
0 -33 13 -25 34 7 18 22 20 43 7z"/>
<path d="M3630 2142 c-5 -2 -10 -10 -10 -18 0 -10 12 -14 41 -14 l40 0 -26
-34 c-14 -19 -29 -50 -32 -70 -5 -32 -3 -36 16 -36 14 0 21 6 21 19 0 32 28
88 55 109 42 34 32 47 -35 47 -33 0 -64 -1 -70 -3z"/>
<path d="M3818 2139 c-19 -12 3 -29 38 -29 19 0 34 -4 34 -10 0 -5 -4 -10 -8
-10 -13 0 -40 -53 -44 -85 -2 -21 2 -31 14 -33 12 -2 20 10 32 50 8 29 25 60
36 68 12 8 26 22 31 32 8 14 1 17 -57 20 -36 1 -71 0 -76 -3z"/>
<path d="M4050 2137 c-27 -14 -38 -50 -21 -71 9 -10 8 -15 -4 -20 -11 -4 -15
-16 -13 -38 2 -25 9 -33 31 -39 62 -16 118 31 83 70 -15 16 -15 19 -1 31 25
20 19 59 -11 70 -32 12 -34 12 -64 -3z m48 -39 c-4 -27 -33 -36 -42 -13 -8 22
1 35 25 35 15 0 20 -6 17 -22z m-8 -73 c15 -18 5 -35 -20 -35 -23 0 -32 13
-24 34 8 20 28 21 44 1z"/>
<path d="M2227 2073 c-17 -16 -4 -24 35 -21 55 4 64 28 11 28 -22 0 -43 -3
-46 -7z"/>
</g>
</svg>
