<?xml version="1.0" standalone="no"?>
<!DOCTYPE svg PUBLIC "-//W3C//DTD SVG 20010904//EN"
 "http://www.w3.org/TR/2001/REC-SVG-20010904/DTD/svg10.dtd">
<svg version="1.0" xmlns="http://www.w3.org/2000/svg"
 width="256.000000pt" height="256.000000pt" viewBox="0 0 256.000000 256.000000"
 preserveAspectRatio="xMidYMid meet">

<g transform="translate(0.000000,256.000000) scale(0.100000,-0.100000)"
fill="#000000" stroke="none">
<path d="M1480 1849 c-55 -25 -96 -62 -121 -111 -20 -40 -26 -123 -8 -133 7
-5 4 -13 -7 -26 -26 -29 -12 -86 31 -126 19 -17 35 -37 35 -42 0 -6 16 -29 36
-50 l35 -40 -23 -34 c-17 -26 -47 -47 -121 -83 -68 -34 -103 -57 -113 -75 -14
-28 -94 -367 -94 -400 0 -12 7 -19 20 -19 20 0 21 -4 14 -101 -6 -85 -5 -101
7 -97 10 3 16 31 21 92 3 48 8 90 11 92 2 3 23 2 46 -2 l41 -7 0 -76 c0 -82
12 -118 30 -91 14 22 12 128 -6 350 -15 187 -22 219 -41 207 -8 -5 -6 -43 11
-231 l6 -58 -55 4 c-30 3 -57 7 -59 9 -10 9 66 304 82 322 19 21 164 97 184
97 7 0 24 -18 38 -40 13 -22 28 -40 34 -40 5 0 22 12 37 26 l28 26 -6 -334
c-5 -264 -3 -337 7 -343 7 -4 16 -2 21 6 5 8 9 162 9 343 l0 330 28 -27 c15
-15 31 -27 35 -27 5 0 30 35 63 88 6 10 196 -93 208 -111 8 -12 26 -67 41
-122 15 -55 29 -107 32 -116 3 -9 -3 -23 -13 -30 -34 -28 -84 -81 -84 -90 0
-19 30 -8 46 16 9 14 18 24 20 23 3 -4 -31 -107 -39 -114 -3 -3 -15 13 -27 36
-21 41 -21 44 -7 193 14 143 11 186 -12 161 -23 -26 -43 -564 -21 -564 6 0 10
38 10 95 l0 94 60 -59 c74 -73 102 -78 154 -25 37 37 52 89 77 265 6 47 17 95
25 107 8 13 39 30 78 43 69 23 149 84 159 121 3 13 -2 28 -14 40 -20 20 -60
18 -111 -6 -15 -8 -41 -16 -58 -20 l-30 -7 17 30 c19 33 12 62 -16 62 -26 0
-97 -82 -111 -128 -22 -69 -75 -202 -81 -202 -4 0 -12 21 -19 48 -31 118 -40
149 -55 170 -9 12 -65 47 -124 76 -71 36 -111 62 -120 80 -13 24 -12 28 23 66
20 22 36 44 36 50 0 5 15 25 34 44 46 45 57 98 27 130 -18 19 -21 30 -15 65
14 90 -41 184 -123 209 -64 19 -171 15 -223 -9z m265 -270 c22 -6 50 -11 63
-11 17 0 22 -6 22 -27 0 -33 -15 -56 -35 -56 -10 0 -22 -15 -30 -38 -15 -44
-48 -82 -87 -103 -31 -16 -37 -34 -11 -34 14 0 14 -2 -3 -21 -10 -12 -31 -27
-45 -34 -23 -12 -30 -11 -67 11 -47 28 -55 48 -17 38 40 -10 31 22 -10 36 -44
14 -92 70 -101 115 -7 39 -22 54 -34 35 -10 -17 -30 19 -30 53 0 19 5 25 23
24 12 -1 43 2 68 6 45 8 46 7 42 -16 -6 -29 12 -44 32 -27 19 16 19 25 -1 44
-14 15 -6 16 83 16 54 0 116 -5 138 -11z m-195 -360 c0 -4 -7 -13 -16 -20 -14
-11 -19 -9 -35 11 -10 14 -19 33 -19 43 0 15 4 15 35 -5 19 -13 35 -26 35 -29z
m141 2 c-19 -26 -26 -29 -42 -21 -26 14 -24 21 14 46 41 27 56 14 28 -25z
m519 -41 c-31 -43 -22 -60 26 -50 37 9 64 -4 64 -29 0 -6 2 -11 5 -11 8 0 67
30 86 44 8 6 -1 -5 -21 -24 -24 -22 -61 -43 -101 -56 -89 -28 -100 -48 -122
-210 -25 -184 -61 -250 -124 -228 -50 17 -44 62 33 258 37 94 70 176 74 181 4
6 10 27 14 48 4 23 22 54 43 78 41 45 56 45 23 -1z m210 -10 c0 -5 -7 -7 -15
-4 -8 4 -15 8 -15 10 0 2 7 4 15 4 8 0 15 -4 15 -10z m-1130 -426 c0 -10 -13
-14 -49 -14 -56 0 -81 7 -81 24 0 7 21 10 65 8 48 -3 65 -7 65 -18z"/>
<path d="M1667 1574 c-13 -13 -7 -42 10 -48 21 -8 36 6 31 30 -3 19 -29 30
-41 18z"/>
<path d="M1587 1499 c-3 -12 0 -22 8 -25 21 -8 34 4 28 26 -7 26 -29 26 -36
-1z"/>
<path d="M1553 1427 c-16 -26 66 -37 87 -12 15 18 17 16 -38 19 -24 1 -46 -2
-49 -7z"/>
<path d="M2181 1094 c-32 -23 -13 -37 29 -22 19 6 41 12 48 14 6 2 12 8 12 14
0 16 -63 12 -89 -6z"/>
<path d="M380 900 l0 -220 106 0 c104 0 105 0 102 -22 -3 -22 -7 -23 -125 -26
l-123 -3 0 -60 c0 -71 23 -80 28 -11 l3 42 310 0 309 0 0 -45 c0 -25 5 -45 10
-45 6 0 10 27 10 60 l0 59 -122 3 c-119 3 -123 4 -126 26 -3 22 -2 22 102 22
l106 0 0 220 0 220 -295 0 -295 0 0 -220z m560 31 c0 -87 3 -173 6 -190 l7
-31 -272 0 -271 0 0 190 0 190 265 0 265 0 0 -159z m-210 -271 c0 -18 -7 -20
-55 -20 -48 0 -55 2 -55 20 0 18 7 20 55 20 48 0 55 -2 55 -20z"/>
<path d="M1712 968 c3 -33 3 -33 65 -36 59 -3 63 -2 69 22 9 39 -2 46 -72 46
l-65 0 3 -32z"/>
<path d="M150 435 c0 -25 4 -45 10 -45 6 0 11 -75 12 -192 2 -142 6 -192 16
-196 9 -3 12 40 12 192 l0 196 1080 0 1080 0 0 -196 c0 -152 3 -195 13 -192 9
4 13 54 15 196 1 117 6 192 12 192 6 0 10 20 10 45 l0 45 -1130 0 -1130 0 0
-45z m2230 0 c0 -13 -129 -15 -1100 -15 -971 0 -1100 2 -1100 15 0 13 129 15
1100 15 971 0 1100 -2 1100 -15z"/>
</g>
</svg>
