<?xml version="1.0" encoding="iso-8859-1"?>
<!-- Uploaded to: SVG Repo, www.svgrepo.com, Generator: SVG Repo Mixer Tools -->
<svg version="1.1" id="Layer_1" xmlns="http://www.w3.org/2000/svg" xmlns:xlink="http://www.w3.org/1999/xlink" 
	 viewBox="0 0 512 512" xml:space="preserve">
<rect x="21.59" y="175.807" style="fill:#EDEDED;" width="468.819" height="234.41"/>
<rect x="453.398" y="175.807" style="fill:#D8D8DA;" width="37.012" height="234.41"/>
<rect x="83.277" y="163.47" style="fill:#D1E5F5;" width="345.446" height="185.06"/>
<polygon style="fill:#B4D8F1;" points="120.289,163.47 305.349,348.53 428.723,348.53 428.723,163.47 "/>
<circle style="fill:#E07188;" cx="256" cy="354.699" r="92.53"/>
<path style="fill:#DC4161;" d="M256,262.169c-4.186,0-8.298,0.305-12.337,0.844c45.266,6.035,80.193,44.77,80.193,91.686
	s-34.927,85.652-80.193,91.686c4.039,0.538,8.151,0.844,12.337,0.844c51.103,0,92.53-41.428,92.53-92.53
	S307.103,262.169,256,262.169z"/>
<polygon style="fill:#80CB93;" points="502.747,138.795 490.41,151.133 21.59,151.133 9.253,138.795 83.277,64.771 428.723,64.771 
	"/>
<polygon style="fill:#6DC180;" points="428.723,64.771 404.048,64.771 478.072,138.795 465.735,151.133 490.41,151.133 
	502.747,138.795 "/>
<path style="fill:#95D5A7;" d="M9.253,175.807c0,34.068,27.618,61.687,61.687,61.687s61.687-27.618,61.687-61.687
	c0,34.068,27.618,61.687,61.687,61.687S256,209.876,256,175.807c0,34.068,27.618,61.687,61.687,61.687s61.687-27.618,61.687-61.687
	c0,34.068,27.618,61.687,61.687,61.687s61.687-27.618,61.687-61.687v-37.012H9.253V175.807z"/>
<path style="fill:#80CB93;" d="M478.072,138.795v37.012c0,29.843-21.193,54.735-49.349,60.451c3.986,0.809,8.112,1.236,12.337,1.236
	c34.068,0,61.687-27.618,61.687-61.687v-37.012H478.072z"/>
<g>
	<path style="fill:#F8F8F9;" d="M218.988,333.108c-8.504,0-15.422-6.918-15.422-15.422c0-8.504,6.918-15.422,15.422-15.422
		c8.504,0,15.422,6.918,15.422,15.422C234.41,326.191,227.492,333.108,218.988,333.108z"/>
	<path style="fill:#F8F8F9;" d="M293.012,407.133c-8.504,0-15.422-6.918-15.422-15.422s6.918-15.422,15.422-15.422
		s15.422,6.918,15.422,15.422S301.516,407.133,293.012,407.133z"/>
	<path style="fill:#F8F8F9;" d="M212.819,407.133c-2.368,0-4.736-0.903-6.542-2.711c-3.614-3.614-3.614-9.473,0-13.085
		l86.361-86.361c3.614-3.614,9.473-3.614,13.085,0c3.614,3.614,3.614,9.473,0,13.085l-86.361,86.361
		C217.556,406.229,215.187,407.133,212.819,407.133z"/>
</g>
<g>
	<path style="fill:#80CB93;" d="M305.349,236.258c3.986,0.809,8.112,1.236,12.337,1.236c34.068,0,61.687-27.618,61.687-61.687
		h-13.371c-6.058,0-11.162,4.409-12.174,10.382C349.575,211.283,330.167,231.219,305.349,236.258z"/>
	<path style="fill:#80CB93;" d="M181.976,236.258c3.986,0.809,8.112,1.236,12.337,1.236c34.068,0,61.687-27.618,61.687-61.687
		h-13.371c-6.058,0-11.162,4.409-12.174,10.382C226.202,211.283,206.794,231.219,181.976,236.258z"/>
	<path style="fill:#80CB93;" d="M58.602,236.258c3.986,0.809,8.112,1.236,12.337,1.236c34.068,0,61.687-27.618,61.687-61.687
		h-13.371c-6.058,0-11.162,4.409-12.174,10.382C102.828,211.283,83.42,231.219,58.602,236.258z"/>
</g>
<path style="fill:#2E2D31;" d="M132.627,210.812c12.216,21.445,35.291,35.935,61.687,35.935s49.47-14.49,61.687-35.935
	c12.216,21.445,35.291,35.935,61.687,35.935s49.47-14.49,61.687-35.935c12.216,21.445,35.291,35.935,61.687,35.935
	c39.117,0,70.94-31.823,70.94-70.94v-37.012c0-2.556-1.036-4.87-2.712-6.544l-74.023-74.023c-1.735-1.736-4.089-2.711-6.543-2.711
	H170.46c-5.11,0-9.253,4.143-9.253,9.253c0,5.11,4.143,9.253,9.253,9.253H424.89l55.518,55.518H31.591l55.518-55.518h46.34
	c5.11,0,9.253-4.143,9.253-9.253c0-5.11-4.143-9.253-9.253-9.253H83.277c-2.454,0-4.808,0.975-6.542,2.711L2.712,132.251
	C1.036,133.926,0,136.239,0,138.795v37.012c0,14.795,4.559,28.542,12.337,39.924v194.486c0,5.11,4.143,9.253,9.253,9.253h155.954
	c18.684,22.592,46.916,37.012,78.456,37.012s59.772-14.42,78.456-37.012H490.41c5.11,0,9.253-4.143,9.253-9.253V260.524
	c0-5.11-4.143-9.253-9.253-9.253c-5.11,0-9.253,4.143-9.253,9.253v140.44H346.614c6.679-13.029,10.625-27.671,11.091-43.181h71.018
	c5.11,0,9.253-4.143,9.253-9.253v-70.734c0-5.11-4.143-9.253-9.253-9.253s-9.253,4.143-9.253,9.253v61.481h-62.854
	c-7.454-48.831-49.733-86.361-100.616-86.361c-50.882,0-93.162,37.53-100.616,86.361H92.53v-95.893
	C109.609,237.916,123.893,226.142,132.627,210.812z M493.494,148.048v27.759c0,28.913-23.521,52.434-52.434,52.434
	c-28.913,0-52.434-23.521-52.434-52.434c0-5.11-4.143-9.253-9.253-9.253s-9.253,4.143-9.253,9.253
	c0,28.913-23.521,52.434-52.434,52.434c-28.913,0-52.434-23.521-52.434-52.434c0-5.11-4.143-9.253-9.253-9.253
	c-5.11,0-9.253,4.143-9.253,9.253c0,28.913-23.521,52.434-52.434,52.434s-52.434-23.521-52.434-52.434
	c0-5.11-4.143-9.253-9.253-9.253c-5.11,0-9.253,4.143-9.253,9.253c0,28.913-23.521,52.434-52.434,52.434
	s-52.434-23.521-52.434-52.434v-27.759H493.494z M256,271.422c45.92,0,83.277,37.357,83.277,83.277S301.92,437.976,256,437.976
	s-83.277-37.358-83.277-83.277S210.08,271.422,256,271.422z M83.277,357.783h71.017c0.465,15.509,4.411,30.151,11.091,43.181H30.843
	V234.288c11.415,7.85,25.225,12.459,40.096,12.459c1.034,0,2.06-0.03,3.084-0.074V348.53
	C74.024,353.64,78.167,357.783,83.277,357.783z"/>
</svg>